<?xml version="1.0" encoding="utf-8"?>
<!-- Generator: Adobe Illustrator 24.3.0, SVG Export Plug-In . SVG Version: 6.00 Build 0)  -->
<svg version="1.1" id="Capa_1" xmlns="http://www.w3.org/2000/svg" xmlns:xlink="http://www.w3.org/1999/xlink" x="0px" y="0px"
	 viewBox="0 0 50 50" style="enable-background:new 0 0 50 50;" xml:space="preserve">
<style type="text/css">
	.st0{fill-rule:evenodd;clip-rule:evenodd;fill:#221E1B;}
</style>
<path class="st0" d="M25.5,3.3c-12.1,0-22,9.8-22,22c0,9.7,6.3,17.9,15,20.8c1.1,0.2,1.5-0.5,1.5-1.1c0-0.5,0-1.9,0-3.7
	c-6.1,1.3-7.4-2.9-7.4-2.9c-1-2.5-2.4-3.2-2.4-3.2c-2-1.4,0.2-1.3,0.2-1.3c2.2,0.2,3.4,2.3,3.4,2.3c2,3.4,5.1,2.4,6.4,1.8
	c0.2-1.4,0.8-2.4,1.4-2.9c-4.9-0.6-10-2.4-10-10.9c0-2.4,0.9-4.4,2.3-5.9c-0.2-0.6-1-2.8,0.2-5.8c0,0,1.8-0.6,6,2.3
	c1.8-0.5,3.6-0.7,5.5-0.7c1.9,0,3.7,0.3,5.5,0.7c4.2-2.8,6-2.3,6-2.3c1.2,3,0.4,5.3,0.2,5.8c1.4,1.5,2.3,3.5,2.3,5.9
	c0,8.4-5.1,10.3-10,10.8c0.8,0.7,1.5,2,1.5,4.1c0,2.9,0,5.3,0,6c0,0.6,0.4,1.3,1.5,1.1c8.7-2.9,15-11.1,15-20.8
	C47.4,13.1,37.6,3.3,25.5,3.3z"/>
</svg>
